<?xml version="1.0" standalone="no"?>
<!DOCTYPE svg PUBLIC "-//W3C//DTD SVG 20010904//EN"
 "http://www.w3.org/TR/2001/REC-SVG-20010904/DTD/svg10.dtd">
<svg version="1.0" xmlns="http://www.w3.org/2000/svg"
 width="480.000000pt" height="300.000000pt" viewBox="0 0 480.000000 300.000000"
 preserveAspectRatio="xMidYMid meet">
<metadata>
Created by potrace 1.16, written by Peter Selinger 2001-2019
</metadata>
<g transform="translate(0.000000,300.000000) scale(0.100000,-0.100000)"
fill="#000000" stroke="none">
<path d="M135 2981 c-22 -10 -54 -34 -72 -52 -67 -71 -63 29 -63 -1429 0
-1458 -4 -1358 63 -1429 18 -18 50 -42 72 -52 39 -18 119 -19 2265 -19 2146 0
2226 1 2265 19 22 10 54 34 72 52 67 71 63 -29 63 1431 0 1267 -1 1325 -19
1363 -23 49 -74 99 -123 119 -33 14 -274 16 -2260 16 -2144 0 -2224 -1 -2263
-19z m4543 -34 c23 -15 54 -46 69 -69 l28 -42 0 -1336 0 -1336 -28 -42 c-15
-23 -46 -54 -69 -69 l-42 -28 -2236 0 -2236 0 -42 28 c-23 15 -54 46 -69 69
l-28 42 -3 1315 c-2 872 1 1328 7 1351 14 49 63 104 113 129 l43 21 2226 -2
2225 -3 42 -28z"/>
<path d="M1996 2794 c-340 -75 -567 -360 -566 -711 0 -111 23 -205 74 -308 76
-152 177 -254 328 -330 141 -71 189 -77 530 -73 329 5 339 6 503 91 118 60
255 200 313 317 53 108 72 190 72 311 0 317 -199 580 -520 685 -84 28 -88 28
-375 31 -230 2 -304 -1 -359 -13z m319 -59 c184 -47 354 -182 433 -345 23 -47
49 -112 57 -145 19 -76 19 -234 0 -310 -47 -184 -182 -354 -345 -433 -112 -55
-184 -72 -300 -72 -116 0 -189 17 -298 71 -169 82 -304 251 -347 431 -19 81
-19 235 1 318 27 118 78 205 179 305 98 98 188 152 302 179 79 19 244 20 318
1z"/>
<path d="M1961 2458 c-24 -12 -68 -45 -96 -74 -128 -127 -158 -312 -80 -478
32 -68 112 -152 176 -183 l44 -22 3 194 c1 107 1 283 0 390 l-3 195 -44 -22z"/>
<path d="M2310 2090 l0 -390 49 24 c149 76 243 267 212 432 -21 117 -86 219
-175 278 -95 61 -86 97 -86 -344z"/>
<path d="M3272 1316 c-40 -20 -41 -22 -22 -34 19 -12 20 -23 20 -257 l0 -245
-25 0 c-14 0 -25 -4 -25 -10 0 -6 33 -10 80 -10 44 0 80 4 80 9 0 5 -10 11
-22 13 l-23 3 -3 278 c-1 152 -6 277 -10 276 -4 -1 -26 -11 -50 -23z"/>
<path d="M3801 1316 c-44 -23 -44 -24 -22 -35 l23 -13 -4 -254 c-3 -240 -2
-253 15 -248 10 3 39 0 66 -7 125 -32 231 54 231 189 0 60 -17 101 -55 130
-51 40 -83 38 -187 -16 -5 -2 -8 60 -8 137 0 78 -3 141 -7 141 -5 -1 -28 -11
-52 -24z m183 -265 c45 -28 69 -75 69 -135 0 -87 -45 -146 -111 -146 -22 0
-41 8 -57 25 -23 23 -25 31 -25 132 0 107 0 109 28 125 35 23 58 22 96 -1z"/>
<path d="M2893 1279 c-103 -40 -173 -140 -173 -249 0 -110 52 -200 144 -247
45 -24 62 -27 141 -27 55 1 106 7 130 16 36 13 41 19 47 59 12 67 5 79 -20 32
-55 -105 -179 -121 -274 -35 -61 55 -88 120 -88 212 0 89 20 141 73 187 91 80
246 66 285 -27 9 -22 20 -40 25 -40 14 0 7 87 -7 100 -24 19 -116 40 -176 39
-30 0 -79 -9 -107 -20z"/>
<path d="M580 1281 c0 -6 11 -11 25 -11 39 0 45 -32 45 -248 0 -211 -7 -242
-51 -242 -10 0 -19 -5 -19 -11 0 -19 295 -6 354 16 169 62 220 286 95 415 -68
70 -110 83 -291 88 -111 3 -158 1 -158 -7z m315 -39 c75 -38 115 -102 122
-197 12 -141 -59 -241 -182 -259 -43 -7 -94 6 -107 27 -4 7 -8 113 -8 236 l0
224 68 -5 c39 -3 83 -13 107 -26z"/>
<path d="M1190 1092 c-57 -19 -57 -18 -31 -39 21 -17 22 -25 19 -143 -3 -121
-4 -125 -25 -128 -13 -2 -23 -8 -23 -13 0 -5 36 -9 80 -9 44 0 80 4 80 9 0 5
-10 11 -22 13 -23 3 -23 6 -28 164 l-5 161 -45 -15z"/>
<path d="M1506 1095 c-21 -7 -43 -18 -49 -24 -18 -18 -37 -12 -37 10 0 22 -14
22 -76 -1 l-26 -10 26 -25 c25 -23 26 -29 26 -129 0 -118 -4 -136 -31 -136
-10 0 -19 -4 -19 -10 0 -6 33 -10 80 -10 47 0 80 4 80 10 0 6 -11 10 -24 10
-32 0 -36 14 -36 141 l0 109 45 22 c53 26 92 18 112 -22 13 -26 18 -205 7
-234 -3 -9 -17 -16 -30 -16 -13 0 -24 -4 -24 -10 0 -6 35 -10 85 -10 50 0 85
4 85 10 0 6 -11 10 -24 10 -13 0 -27 7 -30 16 -3 9 -6 69 -6 134 0 65 -3 126
-6 135 -7 17 -55 45 -76 45 -7 -1 -30 -7 -52 -15z"/>
<path d="M1815 1103 c-34 -8 -81 -50 -99 -88 -20 -41 -23 -143 -6 -177 52
-100 160 -115 240 -33 39 40 33 46 -13 13 -67 -48 -154 -13 -177 71 -23 82
-23 81 100 81 l110 0 0 31 c0 45 -17 68 -63 90 -43 19 -56 21 -92 12z"/>
<path d="M2055 1083 c-47 -25 -49 -26 -27 -36 22 -10 23 -14 20 -136 l-3 -126
-27 -3 c-16 -2 -28 -8 -28 -13 0 -5 45 -9 100 -9 56 0 100 4 100 9 0 6 -17 11
-37 13 l-38 3 -3 110 c-3 107 -2 112 23 135 22 20 28 22 51 11 36 -16 64 -5
64 24 0 28 -32 49 -60 40 -10 -3 -32 -21 -49 -40 l-30 -34 -3 38 -3 39 -50
-25z"/>
<path d="M2344 1096 c-93 -41 -84 -135 18 -187 70 -35 93 -65 79 -102 -21 -56
-107 -42 -141 22 l-19 36 -1 -47 c0 -46 1 -47 38 -57 100 -28 182 11 182 87 0
51 -15 69 -90 107 -53 27 -71 41 -76 62 -10 38 7 58 54 61 31 2 45 -2 61 -19
12 -13 21 -29 21 -36 0 -7 5 -13 11 -13 7 0 9 9 5 23 -3 12 -6 30 -6 39 0 11
-13 21 -37 27 -48 14 -61 13 -99 -3z"/>
<path d="M3425 1090 c-48 -5 -49 -5 -23 -17 l26 -12 4 -136 c3 -132 4 -138 28
-157 33 -27 98 -20 148 16 l37 26 3 -31 c3 -23 7 -29 19 -25 8 3 32 9 54 12
43 7 53 24 14 24 l-25 0 0 150 0 150 -60 0 c-65 0 -78 -12 -30 -29 l30 -10 0
-109 c0 -107 -1 -110 -26 -127 -43 -28 -89 -30 -113 -6 -19 19 -21 32 -21 150
0 72 -3 131 -7 133 -5 2 -30 1 -58 -2z"/>
<path d="M1067 577 c-6 -38 1 -49 14 -24 7 12 23 17 54 17 l45 0 0 -121 c0
-112 -1 -121 -20 -126 -11 -3 -20 -8 -20 -12 0 -8 130 -5 138 3 3 3 -4 6 -16
6 -21 0 -22 3 -22 125 l0 125 41 0 c32 0 42 -4 46 -20 8 -31 23 -13 23 28 0
28 -3 33 -12 24 -15 -15 -221 -17 -248 -2 -15 8 -19 5 -23 -23z"/>
<path d="M2507 577 c-6 -38 1 -49 14 -24 7 12 23 17 54 17 l45 0 0 -121 c0
-112 -1 -121 -20 -126 -11 -3 -20 -8 -20 -12 0 -8 130 -5 138 3 3 3 -4 6 -16
6 -21 0 -22 3 -22 125 l0 125 41 0 c32 0 42 -4 46 -20 8 -31 23 -13 23 28 0
28 -3 33 -12 24 -15 -15 -221 -17 -248 -2 -15 8 -19 5 -23 -23z"/>
<path d="M2378 588 c-8 -7 -33 -65 -54 -128 -21 -63 -47 -123 -56 -132 -10
-10 -18 -19 -18 -20 0 -2 20 -3 45 -3 25 0 45 3 45 8 0 4 -7 7 -16 7 -13 0
-15 7 -9 38 9 49 15 54 66 50 42 -3 44 -5 54 -42 7 -29 6 -41 -3 -44 -7 -2
-12 -7 -12 -10 0 -9 109 -7 117 2 4 3 -1 6 -10 6 -16 0 -19 8 -80 179 -19 52
-38 96 -43 98 -6 2 -17 -2 -26 -9z"/>
<path d="M3035 586 c-112 -50 -121 -212 -15 -266 77 -40 161 -19 214 53 27 36
28 120 2 160 -39 58 -133 83 -201 53z m112 -21 c34 -23 57 -96 48 -151 -18
-125 -152 -128 -185 -4 -24 88 16 170 82 170 19 0 43 -7 55 -15z"/>
<path d="M3733 592 c-6 -4 -31 -61 -54 -127 -23 -66 -50 -127 -60 -137 -11 -9
-19 -18 -19 -20 0 -1 20 -3 45 -3 25 0 45 3 45 8 0 4 -7 7 -15 7 -18 0 -19 16
-4 59 10 28 15 31 55 31 47 0 48 -1 68 -67 6 -17 3 -23 -8 -23 -9 0 -16 -5
-16 -11 0 -6 7 -8 16 -5 9 3 36 6 61 6 44 0 45 0 25 18 -11 9 -39 74 -63 144
-43 124 -50 136 -76 120z"/>
<path d="M593 579 c15 -9 17 -26 17 -134 0 -104 -2 -125 -15 -125 -8 0 -15 -3
-15 -7 0 -5 27 -8 60 -8 33 0 60 3 60 8 0 4 -7 7 -15 7 -13 0 -15 21 -15 129
0 115 2 130 18 134 9 3 -12 5 -48 6 -49 0 -61 -2 -47 -10z"/>
<path d="M738 574 c20 -14 22 -23 22 -119 0 -112 -5 -135 -26 -135 -8 0 -14
-3 -14 -7 0 -9 98 -8 107 1 4 3 -3 6 -15 6 -28 0 -34 24 -30 129 l3 83 104
-116 c57 -64 107 -116 112 -116 5 0 9 57 9 128 0 129 3 145 30 155 8 3 -12 5
-45 6 -46 0 -55 -2 -37 -9 30 -13 33 -24 30 -114 l-3 -78 -88 101 c-88 101
-88 101 -135 101 -45 0 -46 -1 -24 -16z"/>
<path d="M1378 580 c21 -9 22 -14 22 -130 0 -116 -1 -121 -22 -130 -13 -5 -20
-9 -15 -10 19 -3 218 -2 221 1 2 2 6 16 10 32 7 30 -9 38 -17 8 -6 -25 -68
-38 -103 -22 -21 9 -24 17 -24 61 0 36 4 52 15 56 23 9 65 -5 65 -21 0 -8 5
-15 10 -15 6 0 10 20 10 45 0 44 -12 60 -24 30 -3 -9 -19 -15 -41 -15 l-35 0
0 50 c0 58 10 66 66 56 23 -5 38 -15 44 -29 8 -20 9 -18 9 11 l1 32 -107 -1
c-75 0 -101 -3 -85 -9z"/>
<path d="M1631 583 c23 -6 29 -33 29 -140 0 -100 -5 -123 -26 -123 -8 0 -14
-3 -14 -7 0 -5 29 -8 65 -8 64 0 84 8 45 18 -17 4 -20 14 -20 61 0 74 15 72
64 -8 38 -61 41 -64 83 -68 42 -3 57 5 29 15 -8 3 -32 31 -53 63 l-39 57 28
28 c33 33 36 71 8 99 -17 17 -32 20 -117 19 -54 -1 -91 -3 -82 -6z"/>
<path d="M1930 577 c24 -12 25 -17 28 -115 3 -106 -6 -142 -35 -142 -9 0 -14
-3 -10 -6 8 -9 107 -11 107 -3 0 4 -9 9 -20 12 -18 5 -20 13 -20 109 l0 103
33 -38 c115 -133 174 -196 185 -196 9 -1 12 32 12 134 0 131 1 136 23 145 17
7 8 9 -38 9 -46 0 -55 -2 -37 -9 20 -9 22 -15 22 -96 0 -101 6 -102 -101 21
l-74 85 -50 0 c-47 0 -48 -1 -25 -13z"/>
<path d="M2823 583 c15 -4 17 -19 17 -134 0 -108 -2 -129 -15 -129 -8 0 -15
-3 -15 -7 0 -5 27 -8 60 -8 33 0 60 3 60 8 0 4 -7 7 -15 7 -13 0 -15 21 -15
129 0 115 2 130 18 134 9 3 -12 5 -48 5 -36 0 -57 -2 -47 -5z"/>
<path d="M3288 574 c20 -14 22 -23 22 -124 0 -99 -2 -111 -20 -122 -30 -19
-25 -23 30 -22 49 2 86 14 42 14 -28 0 -34 24 -30 128 l3 83 103 -115 c57 -64
108 -116 113 -116 5 0 9 59 9 135 0 131 1 136 23 145 17 7 8 9 -38 9 -33 -1
-53 -3 -45 -6 30 -11 40 -37 40 -110 0 -40 -4 -73 -8 -73 -5 0 -46 43 -92 95
-82 94 -83 95 -129 95 -44 0 -45 -1 -23 -16z"/>
<path d="M3918 580 c21 -9 22 -14 22 -130 0 -116 -1 -121 -22 -130 -29 -11
-33 -11 94 -13 112 -2 118 0 118 43 0 17 -3 16 -25 -5 -26 -27 -82 -34 -103
-13 -8 8 -12 51 -12 125 0 108 1 114 23 123 16 6 4 9 -48 9 -52 0 -64 -3 -47
-9z"/>
</g>
</svg>
