<?xml version="1.0" standalone="no"?>
<!DOCTYPE svg PUBLIC "-//W3C//DTD SVG 20010904//EN"
 "http://www.w3.org/TR/2001/REC-SVG-20010904/DTD/svg10.dtd">
<svg version="1.0" xmlns="http://www.w3.org/2000/svg"
 width="840.000000pt" height="321.000000pt" viewBox="0 0 840.000000 321.000000"
 preserveAspectRatio="xMidYMid meet">
<metadata>
Created by potrace 1.16, written by Peter Selinger 2001-2019
</metadata>
<g transform="translate(0.000000,321.000000) scale(0.100000,-0.100000)"
fill="#000000" stroke="none">
<path d="M2590 2791 c-90 -28 -164 -95 -196 -177 -18 -47 -19 -92 -19 -1019
l0 -970 24 -53 c31 -69 103 -134 173 -156 49 -15 180 -16 1648 -14 l1595 3 51
27 c63 33 116 91 140 154 18 47 19 92 19 1019 l0 970 -24 53 c-31 69 -106 137
-174 157 -44 13 -249 15 -1631 14 -870 0 -1592 -4 -1606 -8z m3243 -95 c43
-17 95 -78 102 -118 3 -18 4 -470 3 -1005 l-3 -971 -31 -39 c-64 -80 95 -73
-1701 -73 -1107 0 -1610 3 -1630 11 -38 14 -83 57 -99 96 -12 27 -14 201 -14
1002 0 661 3 979 11 998 14 37 57 82 94 99 45 20 3220 20 3268 0z"/>
<path d="M3060 2603 c-98 -34 -173 -109 -207 -207 -16 -46 -18 -96 -18 -506
l0 -455 95 -32 c78 -27 110 -33 181 -33 94 0 130 15 173 73 20 27 21 43 24
258 l3 229 150 0 149 0 0 -210 c0 -116 -5 -232 -11 -261 -22 -103 -123 -177
-272 -200 -89 -14 -326 -5 -417 15 -36 9 -68 15 -73 16 -4 0 -6 -161 -5 -358
l3 -357 164 -3 c91 -1 226 1 300 6 116 8 144 13 187 35 66 33 137 113 163 183
21 54 21 72 21 939 l0 885 -282 0 c-231 -1 -291 -4 -328 -17z"/>
<path d="M3994 2599 c-75 -28 -137 -88 -176 -167 l-33 -66 -3 -259 c-2 -143 0
-257 5 -255 4 2 38 19 75 37 141 68 375 80 612 31 l56 -11 0 -76 c0 -68 -2
-74 -17 -68 -154 62 -241 79 -337 63 -135 -21 -197 -94 -198 -231 0 -154 88
-230 264 -229 81 1 175 24 271 66 15 7 17 1 17 -67 l0 -75 -47 -11 c-145 -34
-351 -41 -479 -16 -64 12 -115 32 -216 83 -5 2 -8 -170 -8 -383 l0 -386 303 3
c291 3 303 4 344 26 92 48 149 117 177 212 14 47 16 159 16 927 l0 873 -287
-1 c-262 0 -293 -2 -339 -20z"/>
</g>
</svg>
