<?xml version="1.0" standalone="no"?>
<!DOCTYPE svg PUBLIC "-//W3C//DTD SVG 20010904//EN"
 "http://www.w3.org/TR/2001/REC-SVG-20010904/DTD/svg10.dtd">
<svg version="1.0" xmlns="http://www.w3.org/2000/svg"
 width="300.000000pt" height="188.000000pt" viewBox="0 0 300.000000 188.000000"
 preserveAspectRatio="xMidYMid meet">
<metadata>
Created by potrace 1.16, written by Peter Selinger 2001-2019
</metadata>
<g transform="translate(0.000000,188.000000) scale(0.100000,-0.100000)"
fill="#000000" stroke="none">
<path d="M691 1810 c-48 -11 -111 -59 -144 -107 -21 -33 -63 -175 -191 -650
-242 -895 -228 -837 -215 -889 7 -28 23 -54 41 -69 l30 -25 1063 2 1063 3 43
30 c89 63 85 52 291 817 104 387 191 721 194 743 6 48 -17 98 -59 129 -28 21
-34 21 -1055 23 -565 0 -1042 -2 -1061 -7z m2064 -34 c42 -18 65 -61 65 -121
0 -47 -348 -1361 -377 -1422 -19 -40 -74 -98 -116 -120 -30 -17 -101 -18
-1027 -21 -665 -2 -1007 0 -1031 7 -52 16 -81 52 -87 109 -3 40 27 163 177
723 100 370 188 690 197 710 22 50 92 117 140 134 59 21 2009 22 2059 1z"/>
<path d="M759 1682 c-38 -20 -61 -41 -80 -72 -18 -30 -87 -254 -209 -684 -170
-595 -182 -641 -171 -676 23 -76 -47 -71 986 -70 625 0 933 3 952 11 34 13 90
64 109 102 23 43 374 1277 374 1314 0 22 -9 43 -29 65 l-29 33 -925 3 -924 2
-54 -28z m-27 -387 c2 -3 -4 -52 -15 -108 -11 -57 -18 -111 -14 -120 8 -22 60
-22 78 -1 7 9 23 64 34 123 l21 106 38 3 c32 3 37 1 32 -15 -2 -10 -12 -58
-21 -107 -21 -113 -43 -158 -91 -181 -81 -38 -164 5 -164 84 0 34 24 173 35
209 4 11 56 17 67 7z m1255 -14 c39 -24 50 -66 29 -114 -16 -40 -53 -63 -114
-73 -39 -6 -41 -8 -49 -53 -8 -44 -9 -46 -46 -49 -33 -3 -38 -1 -34 15 3 10
15 74 28 143 14 79 27 130 37 138 24 19 112 15 149 -7z m-879 -77 c25 -18 27
-45 8 -144 l-12 -65 -38 -3 c-32 -3 -37 -1 -32 15 14 49 25 138 18 145 -24 24
-55 -18 -67 -89 -12 -70 -14 -73 -51 -73 -39 0 -38 -7 -15 120 l17 95 32 3
c19 2 32 -1 32 -8 0 -7 8 -5 22 4 12 9 32 16 43 16 11 0 31 -7 43 -16z m352 1
c20 -10 33 -28 41 -54 10 -33 8 -44 -9 -84 -25 -56 -60 -80 -118 -80 -63 0
-94 30 -94 92 0 104 95 170 180 126z m268 -1 c26 -18 28 -56 9 -149 -13 -60
-13 -60 -51 -63 -32 -3 -37 -1 -33 15 20 69 28 136 18 146 -27 27 -59 -26 -76
-125 -5 -35 -8 -38 -40 -38 -19 0 -35 3 -35 8 0 8 27 156 35 190 4 17 13 22
35 22 17 0 30 -4 30 -9 0 -6 12 -3 28 5 35 18 52 18 80 -2z m510 7 c11 -7 10
-27 -4 -115 l-17 -106 -34 0 c-18 0 -33 5 -33 11 0 5 -10 3 -22 -5 -54 -38
-108 0 -108 74 0 57 30 107 80 132 36 19 115 24 138 9z m108 -2 c4 -7 10 -37
14 -68 7 -56 7 -56 19 -25 27 71 47 99 69 102 57 8 56 -2 -9 -128 -86 -167
-177 -249 -192 -172 -3 15 -1 28 3 30 5 2 20 12 34 23 31 25 32 46 6 154 -10
44 -16 83 -14 87 8 12 62 9 70 -3z m-1086 -8 c0 -12 -30 -172 -36 -193 -4 -13
-16 -18 -40 -18 -29 0 -34 3 -31 18 3 9 13 59 22 110 l17 92 34 0 c19 0 34 -4
34 -9z m905 -387 c14 -22 15 -28 4 -35 -11 -6 -9 -9 7 -9 14 0 27 12 40 35 18
34 46 46 59 24 4 -6 -3 -21 -16 -35 l-22 -24 32 0 c26 0 32 -4 29 -17 -2 -14
-15 -19 -51 -21 -26 -2 -47 -6 -47 -10 0 -4 -3 -17 -6 -29 -6 -22 -3 -23 45
-23 39 0 51 -4 51 -15 0 -11 -12 -15 -50 -15 -27 0 -50 -3 -50 -7 0 -21 43
-75 67 -85 16 -7 30 -13 31 -14 2 -1 -6 -12 -17 -23 l-21 -21 -34 31 c-19 17
-38 39 -41 50 -9 26 -18 24 -38 -11 -10 -16 -31 -39 -48 -51 -29 -21 -32 -21
-47 -4 -15 15 -15 18 -2 23 25 9 90 79 90 97 0 13 -8 16 -37 13 -29 -2 -38 1
-38 12 0 11 13 16 46 18 43 3 47 5 51 33 4 28 3 29 -34 29 -31 0 -38 3 -38 20
0 16 7 20 31 20 31 0 31 1 16 24 -12 17 -13 26 -4 35 16 16 23 14 42 -15z
m-358 -8 c-3 -8 -9 -42 -13 -75 -4 -34 -12 -61 -18 -61 -6 0 -2 -7 8 -15 23
-17 23 -18 -29 -40 l-40 -16 26 -22 c14 -12 35 -27 45 -33 18 -11 17 -12 -9
-25 -24 -11 -30 -10 -53 12 -28 26 -64 89 -64 113 0 14 -18 32 -25 25 -1 -2
-6 -28 -10 -57 l-7 -53 26 7 c45 11 31 -24 -19 -48 -53 -26 -76 -16 -58 24 6
13 19 80 29 151 l18 127 99 0 c82 0 98 -2 94 -14z m293 -1 c0 -8 -9 -15 -20
-15 -11 0 -20 -6 -21 -12 0 -7 -6 -48 -13 -90 -12 -73 -11 -78 6 -78 24 0 23
-8 -7 -36 -16 -15 -25 -34 -25 -54 0 -26 -4 -30 -25 -30 -24 0 -25 2 -19 36
l7 36 -44 -7 c-67 -12 -73 -11 -77 7 -2 10 4 18 15 20 15 3 21 22 33 103 15
95 15 100 -2 103 -19 3 -23 14 -11 25 3 4 51 7 105 7 80 0 98 -3 98 -15z
m-542 -97 c-3 -7 -14 -14 -25 -16 -12 -2 -24 -10 -27 -18 -4 -10 2 -14 23 -14
32 0 42 -7 34 -26 -3 -9 -14 -11 -33 -8 -23 5 -28 2 -34 -21 -8 -32 -1 -44 16
-27 16 16 25 15 31 -2 4 -9 -12 -25 -43 -44 -57 -36 -73 -28 -54 26 21 59 18
74 -13 70 -20 -2 -28 2 -28 12 0 10 12 16 33 18 32 3 48 32 17 32 -8 0 -15 7
-15 15 0 12 13 15 61 15 44 0 60 -3 57 -12z"/>
</g>
</svg>
